<svg width="80" height="80" viewBox="0 0 80 80" fill="none" xmlns="http://www.w3.org/2000/svg">
<path d="M24.6663 57.5C22.3329 59.4444 19.9029 60.3333 17.3763 60.1667C14.8496 60 12.6407 59.1389 10.7496 57.5833C8.85848 56.0278 7.56737 53.9867 6.87626 51.46C6.18514 48.9333 6.64292 46.3356 8.24959 43.6667L14.4996 33.3333C13.1107 32.1111 12.014 30.6389 11.2096 28.9167C10.4051 27.1944 10.0018 25.3333 9.99959 23.3333C9.99959 19.6667 11.3051 16.5278 13.9163 13.9167C16.5274 11.3056 19.6663 10 23.3329 10C26.9996 10 30.1385 11.3056 32.7496 13.9167C35.3607 16.5278 36.6663 19.6667 36.6663 23.3333C36.6663 27 35.3607 30.1389 32.7496 32.75C30.1385 35.3611 26.9996 36.6667 23.3329 36.6667C22.8329 36.6667 22.3329 36.6389 21.8329 36.5833C21.3329 36.5278 20.8607 36.4444 20.4163 36.3333L13.9996 47.1667C13.3885 48.1667 13.194 49.1533 13.4163 50.1267C13.6385 51.1 14.1107 51.8911 14.8329 52.5C15.5551 53.1089 16.4163 53.4567 17.4163 53.5433C18.4163 53.63 19.3885 53.2822 20.3329 52.5L55.3329 22.4167C57.6663 20.4722 60.1107 19.5967 62.6663 19.79C65.2218 19.9833 67.444 20.8589 69.3329 22.4167C71.2218 23.9744 72.4996 26.0167 73.1663 28.5433C73.8329 31.07 73.3607 33.6667 71.7496 36.3333L65.4996 46.6667C66.8885 47.8889 67.9863 49.3611 68.7929 51.0833C69.5996 52.8056 70.0018 54.6667 69.9996 56.6667C69.9996 60.3333 68.694 63.4722 66.0829 66.0833C63.4718 68.6944 60.3329 70 56.6663 70C52.9996 70 49.8607 68.6944 47.2496 66.0833C44.6385 63.4722 43.3329 60.3333 43.3329 56.6667C43.3329 53 44.6385 49.8611 47.2496 47.25C49.8607 44.6389 52.9996 43.3333 56.6663 43.3333C57.1663 43.3333 57.6529 43.3611 58.1263 43.4167C58.5996 43.4722 59.0574 43.5556 59.4996 43.6667L65.9996 32.8333C66.6107 31.8333 66.8051 30.8467 66.5829 29.8733C66.3607 28.9 65.8885 28.1089 65.1663 27.5C64.444 26.8911 63.5829 26.5444 62.5829 26.46C61.5829 26.3756 60.6107 26.7222 59.6663 27.5L24.6663 57.5Z" fill="#089946"/>
</svg>
