<svg width="80" height="80" viewBox="0 0 80 80" fill="none" xmlns="http://www.w3.org/2000/svg">
<path d="M29.98 68.285C27.2195 64.3605 25.5399 59.7789 25.11 55H14.01C17.5882 61.1832 23.2489 65.8921 29.98 68.285ZM11.7 50H25.105C25.1717 49.32 25.2584 48.6483 25.365 47.985C24.8021 41.9991 24.8758 35.9703 25.585 30H11.7C10.5699 33.2127 9.99498 36.5943 10 40C10 43.505 10.6 46.87 11.705 50M30.07 36.585C31.885 34.035 34.12 31.805 36.685 30H30.625C30.3517 32.1 30.1634 34.295 30.07 36.585ZM46.51 17.915C47.305 19.985 47.995 22.365 48.545 25H31.46C32.01 22.365 32.7 19.985 33.495 17.915C34.56 15.145 35.77 13.07 36.985 11.735C38.2 10.4 39.22 10 40 10C40.78 10 41.8 10.4 43.015 11.735C44.23 13.07 45.44 15.145 46.505 17.915M53.64 25H65.99C62.2058 18.4594 56.0998 13.5815 48.885 11.335C49.735 12.76 50.5 14.375 51.17 16.12C52.175 18.73 53.01 21.72 53.64 25ZM14.015 25H26.365C26.9248 21.9735 27.7497 19.002 28.83 16.12C29.5 14.375 30.26 12.76 31.115 11.335C23.9021 13.5826 17.7981 18.4604 14.015 25ZM75 52.5C75 55.4547 74.4181 58.3806 73.2873 61.1104C72.1566 63.8402 70.4993 66.3206 68.4099 68.4099C66.3206 70.4992 63.8402 72.1566 61.1104 73.2873C58.3806 74.418 55.4548 75 52.5 75C49.5453 75 46.6195 74.418 43.8897 73.2873C41.1598 72.1566 38.6794 70.4992 36.5901 68.4099C34.5008 66.3206 32.8435 63.8402 31.7127 61.1104C30.582 58.3806 30 55.4547 30 52.5C30 46.5326 32.3706 40.8097 36.5901 36.5901C40.8097 32.3705 46.5327 30 52.5 30C58.4674 30 64.1904 32.3705 68.4099 36.5901C72.6295 40.8097 75 46.5326 75 52.5ZM52.5 40C51.837 40 51.2011 40.2634 50.7323 40.7322C50.2634 41.2011 50 41.837 50 42.5V52.5C50 53.163 50.2634 53.7989 50.7323 54.2678C51.2011 54.7366 51.837 55 52.5 55H60C60.6631 55 61.299 54.7366 61.7678 54.2678C62.2366 53.7989 62.5 53.163 62.5 52.5C62.5 51.837 62.2366 51.2011 61.7678 50.7322C61.299 50.2634 60.6631 50 60 50H55V42.5C55 41.837 54.7366 41.2011 54.2678 40.7322C53.799 40.2634 53.1631 40 52.5 40Z" fill="#089946"/>
</svg>
