<svg width="80" height="80" viewBox="0 0 80 80" fill="none" xmlns="http://www.w3.org/2000/svg">
<g clip-path="url(#clip0_388_7437)">
<path d="M24.4449 36.667L22.2227 43.5559H26.6671L24.4449 36.667Z" fill="#089946"/>
<path d="M67.3335 6.66699H31.778V17.7781H40.6669V22.2225H11.778C8.00022 22.2225 5.11133 25.1114 5.11133 28.8892V53.3337C5.11133 57.1114 8.00022 60.0003 11.778 60.0003H14.0002V71.3337L28.0002 60.0003H42.8891V44.4448H67.3335C71.1113 44.4448 74.0002 41.5559 74.0002 37.7781V13.3337C74.0002 9.55588 71.1113 6.66699 67.3335 6.66699ZM29.1113 50.8892L28.0002 47.3337H21.1113L19.778 50.8892H14.4447L21.778 31.1114H27.1113L34.4447 50.8892H29.1113ZM62.8891 33.3337V37.7781C60.0002 37.7781 56.8891 36.8892 54.2224 35.5559C51.5558 36.8892 48.4447 37.5559 45.3335 37.7781L45.1113 33.3337C46.6669 33.3337 48.2224 33.1114 49.778 32.667C47.778 30.667 46.4447 28.2225 45.778 25.5559H50.4447C51.1113 27.5559 52.4447 29.1114 54.0002 30.4448C56.4447 28.4448 58.0002 25.5559 58.2224 22.2225H44.8891V17.7781H51.5558V13.3337H56.0002V17.7781H63.3335L63.5558 20.0003C63.778 24.667 62.0002 29.3337 58.6669 32.667C60.2224 33.1114 61.5558 33.3337 62.8891 33.3337Z" fill="#089946"/>
</g>
<defs>
<clipPath id="clip0_388_7437">
<rect width="80" height="80" fill="white"/>
</clipPath>
</defs>
</svg>
