<svg width="80" height="80" viewBox="0 0 80 80" fill="none" xmlns="http://www.w3.org/2000/svg">
<path fill-rule="evenodd" clip-rule="evenodd" d="M38.6863 6.93369C39.1013 6.75579 39.5482 6.66406 39.9997 6.66406C40.4512 6.66406 40.898 6.75579 41.313 6.93369L62.6263 16.0704C63.8258 16.5845 64.848 17.4395 65.5662 18.5292C66.2843 19.6188 66.6668 20.8953 66.6663 22.2004V45.067C66.6659 49.1801 65.5783 53.22 63.5137 56.7773C61.4491 60.3347 58.4808 63.283 54.9097 65.3237L41.653 72.897C41.1495 73.1847 40.5796 73.336 39.9997 73.336C39.4198 73.336 38.8499 73.1847 38.3463 72.897L25.0897 65.3237C21.5176 63.2825 18.5487 60.333 16.484 56.7744C14.4193 53.2158 13.3322 49.1746 13.333 45.0604V22.2004C13.3332 20.8959 13.716 19.6201 14.4341 18.5311C15.1522 17.4421 16.1741 16.5877 17.373 16.0737L38.6863 6.93369ZM52.3563 35.6904C52.9635 35.0617 53.2995 34.2197 53.2919 33.3457C53.2843 32.4717 52.9338 31.6357 52.3157 31.0176C51.6977 30.3996 50.8617 30.049 49.9877 30.0415C49.1137 30.0339 48.2717 30.3698 47.643 30.977L36.6663 41.9537L32.3563 37.6437C31.7277 37.0365 30.8857 36.7005 30.0117 36.7081C29.1377 36.7157 28.3016 37.0663 27.6836 37.6843C27.0656 38.3023 26.715 39.1384 26.7074 40.0124C26.6998 40.8863 27.0358 41.7284 27.643 42.357L34.3097 49.0237C34.9348 49.6486 35.7825 49.9997 36.6663 49.9997C37.5502 49.9997 38.3979 49.6486 39.023 49.0237L52.3563 35.6904Z" fill="#089946"/>
</svg>
