<svg width="56" height="61" viewBox="0 0 56 61" fill="none" xmlns="http://www.w3.org/2000/svg">
<path d="M26.8125 1.40528C29.2004 1.3219 31.5246 1.55559 33.7465 2.06769L28.2784 7.92877C27.8637 8.37533 27.5013 8.86784 27.1983 9.39669L27.0917 9.40041C23.4021 9.52926 19.8335 10.7493 16.8372 12.9063C13.8409 15.0633 11.5516 18.0604 10.2586 21.5185C8.9657 24.9766 8.72725 28.7405 9.57344 32.3341C10.4196 35.9277 12.3125 39.1898 15.0125 41.7076C17.7126 44.2255 21.0987 45.8862 24.7427 46.4796C28.3866 47.0731 32.1246 46.5727 35.4841 45.0417C38.8436 43.5106 41.6737 41.0178 43.6164 37.8784C45.5592 34.7389 46.5273 31.0939 46.3985 27.4042L46.3948 27.2976C46.8988 26.9599 47.3609 26.5657 47.781 26.1152L53.2491 20.2541C53.915 22.4349 54.3102 24.7372 54.3936 27.1251C54.9076 41.8441 43.3929 54.1921 28.6738 54.7061C13.9548 55.2201 1.60676 43.7054 1.09276 28.9864C0.578763 14.2673 12.0935 1.91928 26.8125 1.40528ZM26.1761 14.8143C26.2553 17.0823 26.2237 19.3861 26.4254 21.6471L25.0365 23.1365C24.5588 23.6488 24.1866 24.2503 23.9413 24.9064C23.6959 25.5626 23.5823 26.2606 23.6067 26.9607C23.6312 27.6608 23.7933 28.3493 24.0838 28.9867C24.3743 29.6242 24.7875 30.1982 25.2998 30.6759C25.8121 31.1537 26.4136 31.5258 27.0697 31.7712C27.7259 32.0165 28.4239 32.1302 29.124 32.1057C29.8241 32.0813 30.5126 31.9192 31.15 31.6287C31.7875 31.3382 32.3615 30.925 32.8392 30.4126L34.2281 28.9232C36.4976 28.9667 38.791 28.7746 41.0616 28.6953C40.9395 31.2353 40.0936 33.6875 38.6236 35.7626C37.1537 37.8376 35.1209 39.4491 32.7652 40.4068C30.4095 41.3645 27.829 41.6286 25.3281 41.1679C22.8272 40.7072 20.5102 39.5409 18.6503 37.8066C16.7905 36.0723 15.4655 33.8423 14.8314 31.3796C14.1974 28.9169 14.2808 26.3243 15.0719 23.9075C15.8629 21.4907 17.3286 19.3505 19.2961 17.7394C21.2636 16.1282 23.6508 15.1133 26.1761 14.8143ZM44.1578 1.13845C44.6513 1.32315 45.079 1.64991 45.3869 2.07748C45.6949 2.50506 45.8692 3.01427 45.888 3.54086L46.0583 8.41789L50.9327 8.24767C51.4597 8.22938 51.9803 8.36775 52.4287 8.6453C52.8771 8.92284 53.2331 9.3271 53.4518 9.80696C53.6704 10.2868 53.7419 10.8207 53.6572 11.3412C53.5725 11.8617 53.3353 12.3454 52.9757 12.7311L43.8783 22.4759C43.3961 22.9931 42.7281 23.2977 42.0214 23.3225L35.5906 23.5471L30.8891 28.5916C30.4065 29.1091 29.7381 29.4137 29.0309 29.4384C28.3237 29.4631 27.6356 29.2059 27.1181 28.7233C26.6006 28.2407 26.2959 27.5722 26.2712 26.865C26.2466 26.1578 26.5038 25.4698 26.9864 24.9522L31.6907 19.913L31.4661 13.4796C31.4536 13.1292 31.5103 12.7798 31.633 12.4513C31.7556 12.1229 31.9419 11.8218 32.1811 11.5654L41.273 1.81554C41.6327 1.4296 42.0987 1.15901 42.6122 1.03801C43.1257 0.91701 43.6635 0.951036 44.1577 1.13578" fill="#089946"/>
</svg>
