<svg width="92" height="32" viewBox="0 0 92 32" fill="none" xmlns="http://www.w3.org/2000/svg">
<path d="M9.4035 31.943L8.8216 29.5027H4.28278L3.70088 31.943H0L4.77158 15.6743H8.33281L13.1044 31.943H9.4035ZM4.93451 26.7138H8.16987L6.54055 19.8345L4.93451 26.7138Z" fill="#089946"/>
<path d="M35.9914 31.943L35.4095 29.5027H30.8707L30.2888 31.943H26.5879L31.3595 15.6743H34.9207L39.6923 31.943H35.9914ZM31.5224 26.7138H34.7578L33.1285 19.8345L31.5224 26.7138Z" fill="#089946"/>
<path d="M40.7155 31.943V15.6743H45.8828C48.0397 15.6743 49.7311 16.4103 50.957 17.8822C52.1984 19.3386 52.8191 21.3141 52.8191 23.8087C52.8191 26.2722 52.1828 28.2477 50.9104 29.7351C49.6535 31.207 47.9233 31.943 45.7199 31.943H40.7155ZM44.3 28.8984H45.7199C47.9854 28.8984 49.1182 27.2018 49.1182 23.8087C49.1182 20.4155 47.9854 18.7189 45.7199 18.7189H44.3V28.8984Z" fill="#089946"/>
<path d="M54.0474 31.943V15.6743H62.6828V18.5794H57.6319V22.391H62.6828V25.2264H57.6319V29.0379H62.6828V31.943H54.0474Z" fill="#089946"/>
<path d="M64.4698 31.943V15.6743H68.4965L71.5922 27.2716L74.7112 15.6743H78.738V31.943H75.4328V22.0191L72.7793 31.943H70.4052L67.7517 22.0191V31.943H64.4698Z" fill="#089946"/>
<path d="M88.206 15.6743H92L85.2267 31.943H81.3861L83.7603 26.2955L79.4775 15.6743H83.2948L85.7388 22.8093L88.206 15.6743Z" fill="#089946"/>
<path d="M43.0394 4.59473C44.1406 4.59473 44.9866 4.88971 45.5774 5.47967C46.1683 6.0607 46.4637 6.86072 46.4637 7.87975C46.4637 8.89878 46.1683 9.69881 45.5774 10.2798C44.9866 10.8609 44.1406 11.1514 43.0394 11.1514H42.18V13.9805H40.6895V4.59473H43.0394ZM43.12 9.85077C43.693 9.85077 44.1316 9.67646 44.436 9.32784C44.7404 8.97029 44.8926 8.48759 44.8926 7.87975C44.8926 7.26297 44.7404 6.7758 44.436 6.41825C44.1316 6.0607 43.693 5.88192 43.12 5.88192H42.18V9.85077H43.12Z" fill="#089946"/>
<path d="M47.1482 13.9805V4.59473H51.875V5.92215H48.6388V8.6038H51.875V9.94462H48.6388V12.6531H51.875V13.9805H47.1482Z" fill="#089946"/>
<path d="M57.7287 13.9805L57.3258 12.4117H54.4656L54.0627 13.9805H52.4782L55.2981 4.59473H56.4933L59.3133 13.9805H57.7287ZM54.8013 11.0977H56.9901L55.9024 6.79368L54.8013 11.0977Z" fill="#089946"/>
<path d="M65.8669 13.9805H64.148L62.5903 11.1514H61.5563V13.9805H60.0658V4.59473H62.4158C63.5169 4.59473 64.3629 4.88971 64.9537 5.47967C65.5446 6.0607 65.84 6.86072 65.84 7.87975C65.84 9.37254 65.2447 10.3648 64.054 10.8564L65.8669 13.9805ZM61.5563 5.88192V9.85077H62.4963C63.0693 9.85077 63.5079 9.67646 63.8123 9.32784C64.1167 8.97029 64.2689 8.48759 64.2689 7.87975C64.2689 7.26297 64.1167 6.7758 63.8123 6.41825C63.5079 6.0607 63.0693 5.88192 62.4963 5.88192H61.5563Z" fill="#089946"/>
<path fill-rule="evenodd" clip-rule="evenodd" d="M26.4119 2.19994C26.3243 1.40172 26.2314 1.09505 26.0135 0.537598L24.4325 1.15366C24.887 2.31656 24.8038 3.5325 24.4778 4.62131C24.2662 5.32814 23.9599 5.95428 23.6654 6.43577C21.0441 6.61318 19.3767 8.78218 19.2538 10.8924L19.0518 14.3621C14.6412 15.8193 13.2326 19.93 13.0716 22.0047C12.7865 24.1037 13.0215 25.8944 13.7172 27.3776C14.4221 28.8803 15.5382 29.9354 16.7811 30.6447C19.1952 32.0223 22.1527 32.1444 24.0942 31.8973L23.6651 28.5353C22.13 28.7306 20.0037 28.58 18.4653 27.7021C17.7319 27.2836 17.1546 26.7151 16.7911 25.9401C16.4247 25.1591 16.2143 24.037 16.4412 22.4162L16.4497 22.3552L16.4538 22.2939C16.5467 20.8948 17.6047 17.9845 20.9832 17.36L22.2914 17.1182L22.6424 11.0891C22.6816 10.4151 23.2513 9.7658 24.1282 9.8167C24.8757 9.86009 25.1366 10.1124 25.2849 10.3489C25.4995 10.6911 25.6645 11.3346 25.6033 12.3845L28.9919 12.5812C29.0716 11.2123 28.9123 9.74718 28.1618 8.55032C27.5466 7.56925 26.6318 6.92023 25.5022 6.61804C25.7111 6.2007 25.6276 6.47713 26.0636 5.23767C26.4995 3.99821 26.4995 2.99816 26.4119 2.19994Z" fill="#089946"/>
<path fill-rule="evenodd" clip-rule="evenodd" d="M31.4555 0.0525571C29.7553 -0.195878 28.3404 0.471023 27.3079 1.3251C26.9763 1.59935 26.6774 1.8979 26.4128 2.20192C26.4055 2.12902 26.3969 2.05588 26.387 1.9826C26.3958 2.05152 26.4043 2.1244 26.4128 2.20192C26.5004 3.00013 26.5004 4.00017 26.0645 5.23962C28.182 5.59017 29.7102 5.05431 30.723 4.08926C31.7316 3.12829 32.1194 1.84542 32.1793 0.947291L32.2315 0.165946L31.4555 0.0525571Z" fill="#FFD800"/>
</svg>
