<svg width="92" height="32" viewBox="0 0 92 32" fill="none" xmlns="http://www.w3.org/2000/svg">
<path d="M9.4035 31.9423L8.8216 29.5021H4.28278L3.70088 31.9423H0L4.77158 15.6743H8.33281L13.1044 31.9423H9.4035ZM4.93451 26.7133H8.16987L6.54055 19.8343L4.93451 26.7133Z" fill="white"/>
<path d="M35.9914 31.9423L35.4095 29.5021H30.8707L30.2888 31.9423H26.5879L31.3595 15.6743H34.9207L39.6923 31.9423H35.9914ZM31.5224 26.7133H34.7578L33.1285 19.8343L31.5224 26.7133Z" fill="white"/>
<path d="M40.7155 31.9423V15.6743H45.8828C48.0397 15.6743 49.7311 16.4102 50.957 17.8821C52.1984 19.3385 52.8191 21.3139 52.8191 23.8083C52.8191 26.2717 52.1828 28.2471 50.9104 29.7345C49.6535 31.2063 47.9233 31.9423 45.7199 31.9423H40.7155ZM44.3 28.8978H45.7199C47.9854 28.8978 49.1182 27.2013 49.1182 23.8083C49.1182 20.4153 47.9854 18.7187 45.7199 18.7187H44.3V28.8978Z" fill="white"/>
<path d="M54.0474 31.9423V15.6743H62.6828V18.5793H57.6319V22.3907H62.6828V25.2259H57.6319V29.0373H62.6828V31.9423H54.0474Z" fill="white"/>
<path d="M64.4698 31.9423V15.6743H68.4965L71.5922 27.271L74.7112 15.6743H78.738V31.9423H75.4328V22.0188L72.7793 31.9423H70.4052L67.7517 22.0188V31.9423H64.4698Z" fill="white"/>
<path d="M88.206 15.6743H92L85.2267 31.9423H81.3861L83.7603 26.295L79.4775 15.6743H83.2948L85.7388 22.809L88.206 15.6743Z" fill="white"/>
<path d="M43.038 4.59473C44.1391 4.59473 44.9851 4.8897 45.5759 5.47963C46.1668 6.06063 46.4622 6.86062 46.4622 7.8796C46.4622 8.89858 46.1668 9.69857 45.5759 10.2796C44.9851 10.8606 44.1391 11.1511 43.038 11.1511H42.1785V13.9801H40.688V4.59473H43.038ZM43.1185 9.85052C43.6915 9.85052 44.1301 9.67622 44.4345 9.32763C44.7389 8.97009 44.8911 8.48741 44.8911 7.8796C44.8911 7.26285 44.7389 6.7757 44.4345 6.41817C44.1301 6.06063 43.6915 5.88186 43.1185 5.88186H42.1785V9.85052H43.1185Z" fill="white"/>
<path d="M47.1468 13.9801V4.59473H51.8736V5.92208H48.6373V8.60361H51.8736V9.94438H48.6373V12.6527H51.8736V13.9801H47.1468Z" fill="white"/>
<path d="M57.7272 13.9801L57.3244 12.4114H54.4641L54.0613 13.9801H52.4767L55.2967 4.59473H56.4918L59.3118 13.9801H57.7272ZM54.7998 11.0974H56.9887L55.901 6.79358L54.7998 11.0974Z" fill="white"/>
<path d="M65.8654 13.9801H64.1466L62.5889 11.1511H61.5549V13.9801H60.0643V4.59473H62.4143C63.5154 4.59473 64.3614 4.8897 64.9523 5.47963C65.5431 6.06063 65.8385 6.86062 65.8385 7.8796C65.8385 9.37232 65.2432 10.3645 64.0526 10.8561L65.8654 13.9801ZM61.5549 5.88186V9.85052H62.4949C63.0678 9.85052 63.5065 9.67622 63.8108 9.32763C64.1152 8.97009 64.2674 8.48741 64.2674 7.8796C64.2674 7.26285 64.1152 6.7757 63.8108 6.41817C63.5065 6.06063 63.0678 5.88186 62.4949 5.88186H61.5549Z" fill="white"/>
<path fill-rule="evenodd" clip-rule="evenodd" d="M26.4124 2.20182C26.3248 1.40364 26.2319 1.09698 26.014 0.539551L24.433 1.15558C24.8875 2.31843 24.8042 3.53432 24.4783 4.62308C24.2667 5.32987 23.9604 5.95598 23.6658 6.43745C21.0446 6.61485 19.3772 8.78375 19.2543 10.8938L19.0523 14.3634C14.6417 15.8205 13.2331 19.9311 13.072 22.0057C12.787 24.1046 13.022 25.8952 13.7177 27.3783C14.4225 28.881 15.5387 29.936 16.7816 30.6452C19.1957 32.0228 22.1532 32.1449 24.0946 31.8978L23.6656 28.536C22.1305 28.7313 20.0042 28.5807 18.4658 27.7028C17.7324 27.2843 17.1551 26.7159 16.7916 25.9409C16.4252 25.1599 16.2148 24.0379 16.4416 22.4171L16.4502 22.3562L16.4542 22.2948C16.5472 20.8958 17.6052 17.9856 20.9837 17.3612L22.2919 17.1194L22.6429 11.0905C22.6821 10.4166 23.2518 9.76733 24.1286 9.81822C24.8762 9.86161 25.1371 10.1139 25.2854 10.3504C25.5 10.6926 25.665 11.3361 25.6038 12.3859L28.9924 12.5826C29.0721 11.2138 28.9128 9.74871 28.1623 8.5519C27.5471 7.57088 26.6323 6.92188 25.5027 6.61971C25.7116 6.2024 25.6281 6.47881 26.0641 5.23941C26.5 4 26.5 3 26.4124 2.20182Z" fill="white"/>
<path fill-rule="evenodd" clip-rule="evenodd" d="M31.455 0.0525547C29.7548 -0.195869 28.3399 0.471001 27.3074 1.32504C26.9758 1.59928 26.677 1.89781 26.4123 2.20182C26.405 2.12892 26.3964 2.05579 26.3866 1.98251C26.3953 2.05143 26.4038 2.12431 26.4123 2.20182C26.4999 2.99999 26.4999 3.99999 26.064 5.23938C28.1815 5.58991 29.7097 5.05407 30.7225 4.08907C31.7311 3.12814 32.1189 1.84533 32.1788 0.947247L32.231 0.165939L31.455 0.0525547Z" fill="#FFD800"/>
</svg>
