<svg width="71" height="71" viewBox="0 0 71 71" fill="none" xmlns="http://www.w3.org/2000/svg">
<g clip-path="url(#clip0_531_6299)">
<path d="M61.0028 11.4487L60.5506 7.14604C60.4307 6.00489 59.8551 4.9589 58.9504 4.23815C58.0458 3.51741 56.8863 3.18096 55.7269 3.30282L7.64008 8.35694C6.48068 8.4788 5.41641 9.04898 4.6814 9.94206C3.94639 10.8351 3.60085 11.9779 3.72079 13.1191L4.17302 17.4218C4.29295 18.5629 4.86855 19.6089 5.77318 20.3297C6.67781 21.0504 7.83737 21.3869 8.99677 21.265L11.7102 47.0811L9.52439 47.3109C8.94469 47.3718 8.41256 47.6569 8.04505 48.1034C7.67755 48.55 7.50478 49.1214 7.56475 49.6919C7.62472 50.2625 7.91251 50.7855 8.36483 51.1459C8.81714 51.5062 9.39692 51.6745 9.97662 51.6135L34.02 49.0865L34.5112 53.7603C33.1062 54.4211 31.982 55.5488 31.3374 56.9443C30.6927 58.3398 30.5691 59.9131 30.9884 61.3861C31.4077 62.8592 32.3429 64.1372 33.6287 64.9942C34.9145 65.8512 36.4681 66.2321 38.0149 66.0695C39.5617 65.9069 41.0022 65.2113 42.0817 64.1057C43.1612 63.0001 43.8103 61.5556 43.9141 60.0276C44.018 58.4995 43.57 56.9863 42.6493 55.7554C41.7286 54.5244 40.3945 53.655 38.8828 53.3008L38.3915 48.627L62.4349 46.1C63.0146 46.039 63.5468 45.7539 63.9143 45.3074C64.2818 44.8609 64.4545 44.2895 64.3946 43.7189C64.3346 43.1483 64.0468 42.6253 63.5945 42.2649C63.1422 41.9046 62.5624 41.7363 61.9827 41.7973L59.7969 42.027L57.0835 16.2109C58.243 16.089 59.3072 15.5188 60.0422 14.6258C60.7772 13.7327 61.1228 12.5899 61.0028 11.4487ZM37.5625 61.7648C37.1302 61.8102 36.6943 61.7285 36.31 61.5299C35.9257 61.3313 35.6103 61.0247 35.4035 60.649C35.1967 60.2733 35.108 59.8453 35.1485 59.4191C35.1889 58.9929 35.3568 58.5877 35.6309 58.2547C35.905 57.9217 36.2729 57.6759 36.6882 57.5483C37.1034 57.4207 37.5474 57.4171 37.9639 57.538C38.3804 57.6588 38.7508 57.8987 39.0281 58.2272C39.3055 58.5558 39.4774 58.9582 39.5221 59.3837C39.5821 59.9543 39.4093 60.5257 39.0418 60.9723C38.6743 61.4188 38.1422 61.7039 37.5625 61.7648ZM8.09231 12.6596L56.1791 7.6055L56.6313 11.9082L8.54454 16.9623L8.09231 12.6596Z" fill="#089946"/>
</g>
<defs>
<clipPath id="clip0_531_6299">
<rect width="64" height="64" fill="white" transform="translate(0.0751953 7.13672) rotate(-6)"/>
</clipPath>
</defs>
</svg>
