<svg width="67" height="67" viewBox="0 0 67 67" fill="none" xmlns="http://www.w3.org/2000/svg">
<path fill-rule="evenodd" clip-rule="evenodd" d="M6.60743 32.1582L6.97969 21.4981C7.24288 13.9613 7.37457 10.1903 9.79885 7.93219C12.2206 5.67133 15.9916 5.80302 23.5283 6.0662L44.8487 6.81073C52.3854 7.07392 56.1565 7.2056 58.4146 9.62989C60.6754 12.0516 60.5437 15.8226 60.2805 23.3594L59.9083 34.0195C59.6451 41.5563 59.5134 45.3273 57.0891 47.5854C55.3073 49.2496 52.7969 49.6182 48.5926 49.5914C48.6552 47.5717 47.9989 45.5953 46.7408 44.0141C46.6651 43.9225 46.6221 43.8084 46.6187 43.6896C46.5281 41.6567 45.7162 39.7225 44.3286 38.234C42.941 36.7455 41.0685 35.8 39.0469 35.5671C38.9287 35.5554 38.8178 35.5046 38.7317 35.4227C37.2299 34.0496 35.2881 33.2565 33.2545 33.1854C31.2209 33.1144 29.2284 33.7702 27.6345 35.0352C27.543 35.1108 27.4288 35.1538 27.31 35.1572C25.2767 35.2479 23.3422 36.0602 21.8536 37.4483C20.365 38.8365 19.4197 40.7096 19.1874 42.7317C19.1757 42.8499 19.1249 42.9608 19.043 43.0469C17.6786 44.5369 16.887 46.4627 16.8093 48.4815C12.6134 48.2149 10.1348 47.6721 8.47342 45.8877C6.21256 43.466 6.34424 39.695 6.60743 32.1582ZM23.8223 16.7496C23.8409 16.2195 24.0692 15.7185 24.4571 15.3567C24.8451 14.995 25.3608 14.8021 25.8909 14.8207L41.8812 15.379C42.4113 15.3976 42.9123 15.6259 43.2741 16.0138C43.6358 16.4018 43.8287 16.9175 43.8102 17.4476C43.7916 17.9777 43.5633 18.4788 43.1754 18.8405C42.7874 19.2023 42.2717 19.3951 41.7416 19.3766L25.7513 18.8182C25.2212 18.7997 24.7202 18.5714 24.3584 18.1834C23.9967 17.7955 23.8038 17.2797 23.8223 16.7496ZM20.2351 23.9622C19.705 23.9437 19.1892 24.1365 18.8013 24.4982C18.4134 24.86 18.185 25.361 18.1665 25.8912C18.148 26.4213 18.3408 26.937 18.7026 27.325C19.0644 27.7129 19.5654 27.9412 20.0955 27.9597L46.7459 28.8904C47.276 28.9089 47.7918 28.7161 48.1797 28.3543C48.5677 27.9926 48.796 27.4915 48.8145 26.9614C48.833 26.4313 48.6402 25.9155 48.2784 25.5276C47.9167 25.1397 47.4156 24.9113 46.8855 24.8928L20.2351 23.9622Z" fill="#089946"/>
<path fill-rule="evenodd" clip-rule="evenodd" d="M36.0349 38.3788C35.2346 37.6461 34.1992 37.2228 33.1148 37.1849C32.0304 37.147 30.968 37.4971 30.1185 38.1722C29.3679 38.7702 28.4468 39.1146 27.4879 39.1557C26.4042 39.204 25.3731 39.6371 24.58 40.3772C23.7868 41.1173 23.2835 42.116 23.1604 43.1938C23.0524 44.1453 22.6424 45.0382 21.9958 45.7494C21.2645 46.5494 20.8421 47.5837 20.8043 48.6669C20.7664 49.7501 21.1157 50.8114 21.7894 51.6604C22.3875 52.4124 22.7316 53.3343 22.7729 54.291C22.8205 55.3752 23.2533 56.4069 23.9935 57.2006C24.7336 57.9944 25.7326 58.4981 26.8109 58.6213C27.7623 58.7292 28.658 59.1367 29.3665 59.7832C30.1665 60.5145 31.2008 60.9369 32.2841 60.9747C33.3673 61.0125 34.4285 60.6633 35.2776 59.9896C36.0283 59.3916 36.9493 59.0472 37.9082 59.0061C38.992 58.9585 40.0233 58.5261 40.817 57.7865C41.6106 57.0469 42.1146 56.0485 42.2383 54.9708C42.3454 54.0174 42.7523 53.1226 43.4002 52.4151C44.1322 51.6149 44.5551 50.5801 44.593 49.4963C44.6308 48.4125 44.2812 47.3506 43.6067 46.5014C43.0087 45.7507 42.6644 44.8296 42.6233 43.8708C42.5751 42.7874 42.1423 41.7567 41.4028 40.9636C40.6632 40.1705 39.6652 39.667 38.5878 39.5433C37.6342 39.4354 36.742 39.0278 36.0349 38.3788ZM38.1008 48.0648C38.3018 47.8932 38.4667 47.6834 38.5861 47.4477C38.7055 47.2119 38.7769 46.9549 38.7964 46.6913C38.8158 46.4278 38.7829 46.163 38.6994 45.9122C38.6159 45.6615 38.4835 45.4298 38.31 45.2306C38.1364 45.0313 37.9251 44.8684 37.6882 44.7513C37.4513 44.6341 37.1935 44.5651 36.9298 44.5482C36.6661 44.5313 36.4016 44.5668 36.1517 44.6527C35.9018 44.7386 35.6714 44.8732 35.4738 45.0486L30.9882 48.9532L30.096 48.0628C29.7201 47.6933 29.2135 47.4872 28.6864 47.4892C28.1593 47.4913 27.6543 47.7013 27.2812 48.0736C26.9082 48.446 26.6972 48.9506 26.6941 49.4777C26.6911 50.0048 26.8963 50.5118 27.265 50.8884L29.4745 53.1002C29.8326 53.459 30.3136 53.6684 30.8202 53.686C31.3268 53.7037 31.8212 53.5284 32.2035 53.1955L38.1008 48.0648Z" fill="#089946"/>
</svg>
