<svg width="80" height="80" viewBox="0 0 80 80" fill="none" xmlns="http://www.w3.org/2000/svg">
<path fill-rule="evenodd" clip-rule="evenodd" d="M47.5967 7.17317C46.3634 6.6665 44.7967 6.6665 41.6667 6.6665C38.5367 6.6665 36.9734 6.6665 35.7367 7.17317C34.923 7.50566 34.1831 7.99578 33.5596 8.61533C32.936 9.23488 32.4411 9.97162 32.1034 10.7832C31.7901 11.5265 31.6701 12.3965 31.6201 13.6598C31.5963 14.5748 31.3403 15.4688 30.8762 16.2577C30.412 17.0466 29.755 17.7046 28.9667 18.1698C28.1626 18.6168 27.2586 18.8537 26.3385 18.8583C25.4184 18.863 24.5121 18.6353 23.7034 18.1965C22.5767 17.6032 21.7601 17.2765 20.9534 17.1698C19.1887 16.9396 17.4043 17.4138 15.9867 18.4898C14.9267 19.2965 14.1434 20.6432 12.5801 23.3332C11.0134 26.0232 10.2334 27.3665 10.0567 28.6832C9.82341 30.4365 10.3034 32.2098 11.3901 33.6132C11.8834 34.2532 12.5801 34.7898 13.6567 35.4632C15.2467 36.4532 16.2667 38.1398 16.2667 39.9998C16.2667 41.8598 15.2467 43.5465 13.6601 44.5332C12.5801 45.2098 11.8834 45.7465 11.3867 46.3865C10.852 47.0805 10.4592 47.8732 10.231 48.7191C10.0028 49.565 9.94359 50.4477 10.0567 51.3165C10.2334 52.6298 11.0134 53.9765 12.5801 56.6665C14.1467 59.3565 14.9267 60.6998 15.9867 61.5098C17.4001 62.5865 19.1867 63.0598 20.9534 62.8298C21.7601 62.7232 22.5767 62.3965 23.7034 61.8032C24.5125 61.3637 25.4195 61.1358 26.3402 61.1404C27.2609 61.1451 28.1655 61.3822 28.9701 61.8298C30.5901 62.7632 31.5501 64.4798 31.6201 66.3398C31.6701 67.6065 31.7901 68.4732 32.1034 69.2165C32.7834 70.8498 34.0901 72.1498 35.7367 72.8265C36.9701 73.3332 38.5367 73.3332 41.6667 73.3332C44.7967 73.3332 46.3634 73.3332 47.5967 72.8265C48.4104 72.494 49.1504 72.0039 49.7739 71.3843C50.3975 70.7648 50.8924 70.028 51.2301 69.2165C51.5434 68.4732 51.6634 67.6065 51.7134 66.3398C51.7801 64.4798 52.7434 62.7598 54.3667 61.8298C55.1709 61.3828 56.0749 61.146 56.995 61.1414C57.9151 61.1367 58.8214 61.3643 59.6301 61.8032C60.7567 62.3965 61.5734 62.7232 62.3801 62.8298C64.1467 63.0632 65.9334 62.5865 67.3467 61.5098C68.4067 60.7032 69.1901 59.3565 70.7534 56.6665C72.3201 53.9765 73.1001 52.6332 73.2767 51.3165C73.3894 50.4474 73.3297 49.5647 73.1009 48.7188C72.8721 47.8728 72.4788 47.0803 71.9434 46.3865C71.4501 45.7465 70.7534 45.2098 69.6767 44.5365C68.0867 43.5465 67.0667 41.8598 67.0667 39.9998C67.0667 38.1398 68.0867 36.4532 69.6734 35.4665C70.7534 34.7898 71.4501 34.2532 71.9467 33.6132C72.4815 32.9191 72.8742 32.1265 73.1025 31.2806C73.3307 30.4346 73.3899 29.552 73.2767 28.6832C73.1001 27.3698 72.3201 26.0232 70.7534 23.3332C69.1867 20.6432 68.4067 19.2998 67.3467 18.4898C65.9292 17.4138 64.1448 16.9396 62.3801 17.1698C61.5734 17.2765 60.7567 17.6032 59.6301 18.1965C58.821 18.6359 57.914 18.8639 56.9933 18.8592C56.0726 18.8546 55.168 18.6174 54.3634 18.1698C53.5758 17.7042 52.9194 17.046 52.4559 16.2571C51.9923 15.4682 51.7369 14.5745 51.7134 13.6598C51.6634 12.3932 51.5434 11.5265 51.2301 10.7832C50.8924 9.97162 50.3975 9.23488 49.7739 8.61533C49.1504 7.99578 48.4104 7.50566 47.5967 7.17317ZM41.6667 49.9998C47.2334 49.9998 51.7434 45.5232 51.7434 39.9998C51.7434 34.4765 47.2301 29.9998 41.6667 29.9998C36.1034 29.9998 31.5901 34.4765 31.5901 39.9998C31.5901 45.5232 36.1034 49.9998 41.6667 49.9998Z" fill="#089946"/>
</svg>
