<svg width="80" height="80" viewBox="0 0 80 80" fill="none" xmlns="http://www.w3.org/2000/svg">
<path d="M63.3337 6.66699H16.667C11.0003 6.66699 6.66699 11.0003 6.66699 16.667V63.3337C6.66699 69.0003 11.0003 73.3337 16.667 73.3337H63.3337C69.0003 73.3337 73.3337 69.0003 73.3337 63.3337V16.667C73.3337 11.0003 69.0003 6.66699 63.3337 6.66699ZM26.667 56.667C26.667 58.667 25.3337 60.0003 23.3337 60.0003C21.3337 60.0003 20.0003 58.667 20.0003 56.667V43.3337C20.0003 41.3337 21.3337 40.0003 23.3337 40.0003C25.3337 40.0003 26.667 41.3337 26.667 43.3337V56.667ZM43.3337 56.667C43.3337 58.667 42.0003 60.0003 40.0003 60.0003C38.0003 60.0003 36.667 58.667 36.667 56.667V23.3337C36.667 21.3337 38.0003 20.0003 40.0003 20.0003C42.0003 20.0003 43.3337 21.3337 43.3337 23.3337V56.667ZM60.0003 56.667C60.0003 58.667 58.667 60.0003 56.667 60.0003C54.667 60.0003 53.3337 58.667 53.3337 56.667V36.667C53.3337 34.667 54.667 33.3337 56.667 33.3337C58.667 33.3337 60.0003 34.667 60.0003 36.667V56.667Z" fill="#089946"/>
</svg>
