<svg width="115" height="40" viewBox="0 0 115 40" fill="none" xmlns="http://www.w3.org/2000/svg">
<path d="M11.7544 39.9267L11.027 36.8765H5.35348L4.6261 39.9267H0L5.96447 19.5918H10.416L16.3805 39.9267H11.7544ZM6.16814 33.3905H10.2123L8.17569 24.7917L6.16814 33.3905Z" fill="white"/>
<path d="M44.9893 39.9267L44.2619 36.8765H38.5884L37.861 39.9267H33.2349L39.1994 19.5918H43.6509L49.6154 39.9267H44.9893ZM39.403 33.3905H43.4472L41.4106 24.7917L39.403 33.3905Z" fill="white"/>
<path d="M50.8944 39.9267V19.5918H57.3535C60.0496 19.5918 62.1639 20.5117 63.6962 22.3515C65.248 24.172 66.0238 26.6412 66.0238 29.7593C66.0238 32.8386 65.2286 35.3078 63.638 37.167C62.0669 39.0068 59.9042 39.9267 57.1498 39.9267H50.8944ZM55.3751 36.1212H57.1498C59.9818 36.1212 61.3977 34.0005 61.3977 29.7593C61.3977 25.518 59.9818 23.3973 57.1498 23.3973H55.3751V36.1212Z" fill="white"/>
<path d="M67.5593 39.9267V19.5918H78.3535V23.223H72.0399V27.9872H78.3535V31.5313H72.0399V36.2955H78.3535V39.9267H67.5593Z" fill="white"/>
<path d="M80.5872 39.9267V19.5918H85.6207L89.4903 34.0877L93.389 19.5918H98.4225V39.9267H94.291V27.5224L90.9741 39.9267H88.0064L84.6896 27.5224V39.9267H80.5872Z" fill="white"/>
<path d="M110.258 19.5918H115L106.533 39.9267H101.733L104.7 32.8676L99.3469 19.5918H104.118L107.173 28.5101L110.258 19.5918Z" fill="white"/>
<path d="M53.7983 5.74414C55.1747 5.74414 56.2322 6.11285 56.9708 6.85027C57.7094 7.57652 58.0786 8.57651 58.0786 9.85023C58.0786 11.124 57.7094 12.1239 56.9708 12.8502C56.2322 13.5764 55.1747 13.9396 53.7983 13.9396H52.724V17.4758H50.8608V5.74414H53.7983ZM53.899 12.3139C54.6152 12.3139 55.1635 12.096 55.544 11.6603C55.9245 11.2133 56.1147 10.61 56.1147 9.85023C56.1147 9.07929 55.9245 8.47036 55.544 8.02344C55.1635 7.57652 54.6152 7.35306 53.899 7.35306H52.724V12.3139H53.899Z" fill="white"/>
<path d="M58.9343 17.4758V5.74414H64.8428V7.40334H60.7975V10.7552H64.8428V12.4312H60.7975V15.8166H64.8428V17.4758H58.9343Z" fill="white"/>
<path d="M72.1599 17.4758L71.6563 15.515H68.081L67.5774 17.4758H65.5967L69.1217 5.74414H70.6156L74.1406 17.4758H72.1599ZM68.5006 13.8725H71.2367L69.8771 8.49271L68.5006 13.8725Z" fill="white"/>
<path d="M82.3326 17.4758H80.184L78.2369 13.9396H76.9444V17.4758H75.0812V5.74414H78.0187C79.3951 5.74414 80.4526 6.11285 81.1912 6.85027C81.9297 7.57652 82.299 8.57651 82.299 9.85023C82.299 11.7161 81.5549 12.9563 80.0666 13.5709L82.3326 17.4758ZM76.9444 7.35306V12.3139H78.1194C78.8356 12.3139 79.3839 12.096 79.7644 11.6603C80.1449 11.2133 80.3351 10.61 80.3351 9.85023C80.3351 9.07929 80.1449 8.47036 79.7644 8.02344C79.3839 7.57652 78.8356 7.35306 78.1194 7.35306H76.9444Z" fill="white"/>
<path fill-rule="evenodd" clip-rule="evenodd" d="M33.0149 2.75166C32.9054 1.75394 32.7892 1.37061 32.5169 0.673828L30.5406 1.44387C31.1087 2.89743 31.0047 4.41729 30.5973 5.77824C30.3328 6.66173 29.9499 7.44436 29.5817 8.0462C26.3051 8.26795 24.2208 10.9791 24.0673 13.6167L23.8147 17.9536C18.3015 19.775 16.5407 24.9132 16.3395 27.5065C15.9831 30.1301 16.2769 32.3684 17.1465 34.2223C18.0276 36.1006 19.4228 37.4194 20.9763 38.3059C23.994 40.0279 27.6909 40.1805 30.1177 39.8717L29.5813 35.6694C27.6625 35.9135 25.0047 35.7253 23.0817 34.6279C22.1649 34.1048 21.4432 33.3942 20.9888 32.4255C20.5309 31.4493 20.2679 30.0467 20.5514 28.0208L20.5621 27.9446L20.5672 27.8679C20.6834 26.1191 22.0059 22.4814 26.229 21.7009L27.8642 21.3986L28.303 13.8625C28.3521 13.0201 29.0641 12.2085 30.1602 12.2722C31.0946 12.3264 31.4207 12.6418 31.6061 12.9374C31.8743 13.3652 32.0806 14.1695 32.0042 15.4817L36.2399 15.7276C36.3395 14.0166 36.1404 12.1853 35.2022 10.6893C34.4333 9.46298 33.2898 8.65174 31.8778 8.27403C32.1389 7.75238 32.0345 8.0979 32.5795 6.54865C33.1244 4.99939 33.1244 3.74939 33.0149 2.75166Z" fill="white"/>
<path fill-rule="evenodd" clip-rule="evenodd" d="M39.3194 0.0656934C37.1941 -0.244837 35.4255 0.588752 34.1348 1.6563C33.7204 1.9991 33.3468 2.37226 33.016 2.75227C33.0069 2.66115 32.9962 2.56973 32.9838 2.47813C32.9947 2.56429 33.0054 2.65538 33.016 2.75227C33.1255 3.74999 33.1255 4.99998 32.5806 6.54923C35.2275 6.98738 37.1377 6.31759 38.4038 5.11134C39.6645 3.91018 40.1492 2.30667 40.2242 1.18406L40.2894 0.207423L39.3194 0.0656934Z" fill="#FFD800"/>
</svg>
