<svg width="938" height="392" viewBox="0 0 938 392" fill="none" xmlns="http://www.w3.org/2000/svg">
<g opacity="0.04">
<path d="M814.848 62.427C853.021 66.0644 895.152 81.228 924.552 120.674L937.971 138.678L921.117 153.419C901.745 170.364 867.956 188.449 828.107 187.459C788.089 186.463 746.315 166.357 710.528 116.396C710.896 116.21 711.262 116.023 711.626 115.835C711.42 115.935 711.214 116.035 711.007 116.135C710.845 116.213 710.683 116.291 710.52 116.369C684.047 129.051 682.698 129.446 677.335 131.019C675.834 131.459 674.017 131.991 671.246 132.912C688.007 161.893 693.406 193.536 686.026 225.827C677.023 265.22 650.627 298.069 621.337 324.131L556.707 251.546C579.17 231.558 588.84 215.207 591.414 203.942C593.193 196.159 593.013 185.775 578.755 169.763C562.031 150.98 537.37 152.574 522.949 165.406L393.943 280.197L362.568 258.6C281.54 202.823 201.279 240.242 171.109 266.646L169.785 267.805L168.381 268.864C131.018 297.041 112.591 323.988 104.218 347.196C95.9084 370.226 96.104 393.408 102.492 416.719C115.889 465.617 155.894 511.712 190.923 538.842L131.637 615.503C87.3346 581.19 29.923 518.844 8.8982 442.111C-1.92572 402.608 -3.19289 358.678 12.9185 314.024C28.8201 269.951 60.267 228.989 108.477 192.322C153.684 153.636 265.314 99.0435 384.077 158.882L458.318 92.8211C503.469 52.6448 581.082 42.5519 637.741 92.0365C653.439 88.265 672.301 81.8082 690.875 71.8014C719.488 56.3866 745.757 33.4873 760.066 0.773407L804.533 20.3285C797.673 36.0102 793.355 44.0932 778.99 62.0049L778.704 62.3615L778.998 62.0328C790.503 61.2439 802.59 61.259 814.848 62.427Z" fill="white"/>
<path d="M782.911 57.0766C781.694 58.6466 780.393 60.2934 778.998 62.0328C780.324 60.4107 781.629 58.7584 782.911 57.0766Z" fill="white"/>
</g>
</svg>
