<svg width="64" height="64" viewBox="0 0 64 64" fill="none" xmlns="http://www.w3.org/2000/svg">
<path d="M21.9812 19.5731L4.96786 22.0398L4.66653 22.1011C4.21037 22.2222 3.79452 22.4622 3.46144 22.7966C3.12837 23.131 2.89001 23.5478 2.7707 24.0044C2.65139 24.461 2.6554 24.9411 2.78234 25.3957C2.90927 25.8503 3.15457 26.263 3.4932 26.5918L15.8185 38.5891L12.9119 55.5358L12.8772 55.8291C12.8493 56.3009 12.9472 56.7717 13.1611 57.1931C13.3749 57.6146 13.6969 57.9717 14.0941 58.2278C14.4913 58.484 14.9494 58.6299 15.4216 58.6507C15.8938 58.6716 16.363 58.5666 16.7812 58.3465L31.9972 50.3465L47.1785 58.3465L47.4452 58.4691C47.8854 58.6425 48.3637 58.6957 48.8312 58.6231C49.2987 58.5506 49.7385 58.3551 50.1054 58.0565C50.4724 57.7579 50.7533 57.3671 50.9194 56.9242C51.0855 56.4812 51.1308 56.002 51.0505 55.5358L48.1412 38.5891L60.4719 26.5891L60.6799 26.3625C60.977 25.9965 61.1718 25.5583 61.2445 25.0926C61.3171 24.6268 61.265 24.1501 61.0934 23.7111C60.9219 23.272 60.637 22.8863 60.2678 22.5932C59.8987 22.3 59.4584 22.11 58.9919 22.0425L41.9785 19.5731L34.3732 4.15979C34.1531 3.71322 33.8124 3.33717 33.3897 3.07421C32.967 2.81124 32.4791 2.67188 31.9812 2.67188C31.4833 2.67188 30.9954 2.81124 30.5727 3.07421C30.15 3.33717 29.8093 3.71322 29.5892 4.15979L21.9812 19.5731Z" fill="url(#paint0_linear_322_17179)"/>
<defs>
<linearGradient id="paint0_linear_322_17179" x1="2.68408" y1="58.6547" x2="59.4295" y2="0.858591" gradientUnits="userSpaceOnUse">
<stop stop-color="#FFE242"/>
<stop offset="0.8" stop-color="#FFC402"/>
</linearGradient>
</defs>
</svg>
