<svg width="71" height="71" viewBox="0 0 71 71" fill="none" xmlns="http://www.w3.org/2000/svg">
<g clip-path="url(#clip0_416_6369)">
<path d="M58.3599 24.6907L45.0996 23.297L45.9359 15.3409C46.2425 12.4236 44.1065 9.78587 41.1892 9.47925L35.8851 8.92177C32.9679 8.61515 30.3301 10.7511 30.0235 13.6684L29.1873 21.6246L15.927 20.2309C13.0097 19.9242 10.372 22.0602 10.0654 24.9775L6.99924 54.1501C6.69262 57.0674 8.8286 59.7051 11.7459 60.0117L54.1788 64.4716C57.0961 64.7782 59.7338 62.6423 60.0404 59.725L63.1066 30.5523C63.4132 27.6351 61.2772 24.9974 58.3599 24.6907ZM27.7936 34.8849C29.9948 35.1162 31.5849 37.0799 31.3536 39.2811C31.1222 41.4823 29.1586 43.0724 26.9574 42.841C24.7561 42.6097 23.166 40.646 23.3974 38.4448C23.6287 36.2436 25.5924 34.6535 27.7936 34.8849ZM34.2167 50.3074C34.1397 51.0398 33.4836 51.571 32.7513 51.4941L19.491 50.1004C18.7586 50.0234 18.2274 49.3673 18.3043 48.635L18.374 47.9719C18.6528 45.3199 24.0962 44.5513 26.7483 44.8301C29.4004 45.1088 34.5651 46.9923 34.2864 49.6444L34.2167 50.3074ZM39.3774 26.7176C39.3004 27.45 38.6444 27.9813 37.912 27.9043L35.26 27.6255C34.5276 27.5486 33.9963 26.8925 34.0733 26.1601L35.1883 15.5519C35.2652 14.8196 35.9213 14.2883 36.6537 14.3653L39.3057 14.644C40.0381 14.721 40.5694 15.3771 40.4924 16.1094L39.3774 26.7176ZM50.5471 48.0018C50.4702 48.7341 49.8141 49.2654 49.0817 49.1884L41.1256 48.3522C40.3932 48.2752 39.8619 47.6192 39.9389 46.8868L40.0783 45.5608C40.1552 44.8284 40.8113 44.2972 41.5437 44.3741L49.4999 45.2104C50.2322 45.2873 50.7635 45.9434 50.6865 46.6758L50.5471 48.0018ZM51.3834 40.0456C51.3064 40.778 50.6503 41.3092 49.918 41.2323L41.9618 40.396C41.2294 40.3191 40.6982 39.663 40.7751 38.9306L40.9145 37.6046C40.9915 36.8723 41.6476 36.341 42.3799 36.4179L50.3361 37.2542C51.0684 37.3311 51.5997 37.9872 51.5227 38.7196L51.3834 40.0456Z" fill="#089946"/>
</g>
<defs>
<clipPath id="clip0_416_6369">
<rect width="64" height="64" fill="white" transform="translate(7.27002 0.551758) rotate(6)"/>
</clipPath>
</defs>
</svg>
