<svg width="56" height="56" viewBox="0 0 56 56" fill="none" xmlns="http://www.w3.org/2000/svg">
<path d="M43.3457 14.4277C43.5961 14.6044 43.8092 14.8288 43.9728 15.0879C44.1365 15.3471 44.2475 15.6359 44.2995 15.938C44.3515 16.2401 44.3435 16.5494 44.2759 16.8484C44.2084 17.1473 44.0825 17.43 43.9057 17.6803L30.685 36.3937C29.845 37.579 29.1333 38.587 28.4917 39.3547C27.822 40.148 27.0683 40.89 26.0697 41.3613C24.5897 42.0638 22.9015 42.191 21.333 41.7183C20.269 41.3987 19.4197 40.771 18.652 40.0803C17.917 39.4153 17.084 38.5217 16.1087 37.4763L12.2937 33.386C12.0765 33.1636 11.906 32.9 11.7921 32.6107C11.6782 32.3215 11.6233 32.0124 11.6305 31.7016C11.6378 31.3908 11.707 31.0846 11.8343 30.8009C11.9615 30.5173 12.1442 30.2619 12.3715 30.0499C12.5988 29.8378 12.8662 29.6733 13.1579 29.566C13.4497 29.4587 13.76 29.4108 14.0705 29.4251C14.3811 29.4394 14.6856 29.5156 14.9663 29.6493C15.247 29.7829 15.4981 29.9713 15.705 30.2033L19.4523 34.2213C20.514 35.3577 21.2117 36.102 21.781 36.6177C22.341 37.1217 22.5837 37.222 22.6793 37.25C23.1367 37.39 23.6243 37.355 24.0747 37.1427C24.182 37.0913 24.4223 36.9443 24.9147 36.354C25.4187 35.7543 26.0183 34.9073 26.9283 33.6217L40.093 14.9877C40.2698 14.7373 40.4941 14.5242 40.7533 14.3605C41.0124 14.1968 41.3013 14.0858 41.6033 14.0338C41.9054 13.9818 42.2147 13.9898 42.5137 14.0574C42.8126 14.125 43.0953 14.2508 43.3457 14.4277Z" fill="#023D27"/>
</svg>
