<svg width="40" height="40" viewBox="0 0 40 40" fill="none" xmlns="http://www.w3.org/2000/svg">
<rect width="40" height="40" rx="8" fill="#023D27"/>
<path fill-rule="evenodd" clip-rule="evenodd" d="M14.8499 12.787C16.7309 11.44 18.9579 11 20.4559 11H21.4609C21.7262 11 21.9805 11.1054 22.1681 11.2929C22.3556 11.4804 22.4609 11.7348 22.4609 12V15H24.4749C24.7402 15 24.9945 15.1054 25.1821 15.2929C25.3696 15.4804 25.4749 15.7348 25.4749 16V18H28.4939C28.7592 18 29.0135 18.1054 29.2011 18.2929C29.3886 18.4804 29.4939 18.7348 29.4939 19V20C29.4939 23.503 28.0989 25.808 26.1969 27.206C24.3469 28.566 22.1099 29 20.4569 29C18.8039 29 16.5669 28.566 14.7149 27.206C12.8139 25.808 11.4189 23.503 11.4189 20C11.4189 16.472 12.9189 14.172 14.8499 12.787ZM17.4419 15C17.1767 15 16.9224 15.1054 16.7348 15.2929C16.5473 15.4804 16.4419 15.7348 16.4419 16C16.4419 16.2652 16.5473 16.5196 16.7348 16.7071C16.9224 16.8946 17.1767 17 17.4419 17C17.7072 17 17.9625 16.8946 18.1501 16.7071C18.3376 16.5196 18.4429 16.2652 18.4429 16C18.4429 15.7348 18.3376 15.4804 18.1501 15.2929C17.9625 15.1054 17.7072 15 17.4419 15ZM14.4319 20C14.4319 19.7348 14.5373 19.4804 14.7248 19.2929C14.9124 19.1054 15.1667 19 15.4319 19H15.4339C15.6992 19 15.9535 19.1054 16.1411 19.2929C16.3286 19.4804 16.4339 19.7348 16.4339 20C16.4339 20.2652 16.3286 20.5196 16.1411 20.7071C15.9535 20.8946 15.6992 21 15.4339 21H15.4329C15.1677 21 14.9134 20.8946 14.7258 20.7071C14.5383 20.5196 14.4319 20.2652 14.4319 20ZM20.4559 20C20.1907 20 19.9364 20.1054 19.7488 20.2929C19.5613 20.4804 19.4559 20.7348 19.4559 21C19.4559 21.2652 19.5613 21.5196 19.7488 21.7071C19.9364 21.8946 20.1907 22 20.4559 22C20.7212 22 20.9765 21.8946 21.1641 21.7071C21.3516 21.5196 21.4569 21.2652 21.4569 21C21.4569 20.7348 21.3516 20.4804 21.1641 20.2929C20.9765 20.1054 20.7212 20 20.4559 20ZM17.4459 24C17.4459 23.7348 17.5513 23.4804 17.7388 23.2929C17.9264 23.1054 18.1807 23 18.4459 23H18.4479C18.7132 23 18.9675 23.1054 19.1551 23.2929C19.3426 23.4804 19.4479 23.7348 19.4479 24C19.4479 24.2652 19.3426 24.5196 19.1551 24.7071C18.9675 24.8946 18.7132 25 18.4479 25H18.4469C18.1817 25 17.9274 24.8946 17.7398 24.7071C17.5523 24.5196 17.4459 24.2652 17.4459 24ZM24.4749 22C24.2097 22 23.9554 22.1054 23.7678 22.2929C23.5803 22.4804 23.4749 22.7348 23.4749 23C23.4749 23.2652 23.5803 23.5196 23.7678 23.7071C23.9554 23.8946 24.2097 24 24.4749 24C24.7402 24 24.9945 23.8946 25.1821 23.7071C25.3696 23.5196 25.4749 23.2652 25.4749 23C25.4749 22.7348 25.3696 22.4804 25.1821 22.2929C24.9945 22.1054 24.7402 22 24.4749 22Z" fill="white"/>
</svg>
