<svg width="67" height="68" viewBox="0 0 67 68" fill="none" xmlns="http://www.w3.org/2000/svg">
<path d="M32.8125 7.40431C35.2004 7.32092 37.5246 7.55462 39.7465 8.06672L34.2784 13.9278C33.8637 14.3744 33.5013 14.8669 33.1983 15.3957L33.0917 15.3994C29.4021 15.5283 25.8335 16.7483 22.8372 18.9053C19.8409 21.0624 17.5516 24.0594 16.2586 27.5175C14.9657 30.9756 14.7272 34.7395 15.5734 38.3331C16.4196 41.9268 18.3125 45.1888 21.0125 47.7067C23.7126 50.2245 27.0987 51.8852 30.7427 52.4787C34.3866 53.0721 38.1246 52.5717 41.4841 51.0407C44.8436 49.5097 47.6737 47.0168 49.6164 43.8774C51.5592 40.738 52.5273 37.0929 52.3985 33.4033L52.3948 33.2967C52.8988 32.9589 53.3609 32.5647 53.781 32.1142L59.2491 26.2532C59.915 28.4339 60.3102 30.7362 60.3936 33.1241C60.9076 47.8431 49.3929 60.1912 34.6738 60.7052C19.9548 61.2192 7.60676 49.7044 7.09276 34.9854C6.57876 20.2664 18.0935 7.91831 32.8125 7.40431ZM32.1761 20.8134C32.2553 23.0813 32.2237 25.3851 32.4254 27.6462L31.0365 29.1355C30.5588 29.6479 30.1866 30.2493 29.9413 30.9054C29.6959 31.5616 29.5823 32.2597 29.6067 32.9598C29.6312 33.6599 29.7933 34.3483 30.0838 34.9857C30.3743 35.6232 30.7875 36.1972 31.2998 36.6749C31.8121 37.1527 32.4136 37.5249 33.0697 37.7702C33.7259 38.0155 34.4239 38.1292 35.124 38.1048C35.8241 38.0803 36.5126 37.9182 37.15 37.6277C37.7875 37.3372 38.3615 36.924 38.8392 36.4116L40.2281 34.9223C42.4976 34.9658 44.791 34.7736 47.0616 34.6943C46.9395 37.2344 46.0936 39.6865 44.6236 41.7616C43.1537 43.8367 41.1209 45.4481 38.7652 46.4058C36.4095 47.3635 33.829 47.6276 31.3281 47.1669C28.8272 46.7062 26.5102 45.5399 24.6503 43.8056C22.7905 42.0713 21.4655 39.8413 20.8314 37.3786C20.1974 34.916 20.2808 32.3233 21.0719 29.9065C21.8629 27.4897 23.3286 25.3495 25.2961 23.7384C27.2636 22.1272 29.6508 21.1123 32.1761 20.8134ZM50.1578 7.13747C50.6513 7.32217 51.079 7.64893 51.3869 8.07651C51.6949 8.50408 51.8692 9.0133 51.888 9.53988L52.0583 14.4169L56.9327 14.2467C57.4597 14.2284 57.9803 14.3668 58.4287 14.6443C58.8771 14.9219 59.2331 15.3261 59.4518 15.806C59.6704 16.2858 59.7419 16.8198 59.6572 17.3402C59.5725 17.8607 59.3353 18.3444 58.9757 18.7301L49.8783 28.4749C49.3961 28.9922 48.7281 29.2967 48.0214 29.3215L41.5906 29.5461L36.8891 34.5906C36.4065 35.1081 35.7381 35.4128 35.0309 35.4374C34.3237 35.4621 33.6356 35.2049 33.1181 34.7223C32.6006 34.2397 32.2959 33.5712 32.2712 32.864C32.2466 32.1568 32.5038 31.4688 32.9864 30.9512L37.6907 25.912L37.4661 19.4786C37.4536 19.1282 37.5103 18.7788 37.633 18.4503C37.7556 18.1219 37.9419 17.8209 38.1811 17.5645L47.273 7.81456C47.6327 7.42862 48.0987 7.15803 48.6122 7.03703C49.1257 6.91603 49.6635 6.95006 50.1577 7.13481" fill="#089946"/>
</svg>
