<svg width="396" height="400" viewBox="0 0 396 400" fill="none" xmlns="http://www.w3.org/2000/svg">
<path d="M125.547 155.5C146.393 99.271 186.24 41.7578 257.643 13.3882L290.232 0.439947L305.718 31.9281C323.519 68.1228 337.247 126.577 319.723 186.418C302.126 246.513 254.957 301.473 165.105 335.211C164.971 334.579 164.835 333.95 164.699 333.323C164.767 333.675 164.835 334.027 164.902 334.38C164.955 334.657 165.007 334.935 165.06 335.213C173.567 380.404 173.622 382.604 173.84 391.353C173.901 393.803 173.975 396.766 174.251 401.331C224.763 387.803 274.728 392.539 320.531 416.858C376.409 446.527 415.406 499.823 442.989 554.727L307.366 622.851C286.211 580.742 265.404 559.459 249.426 550.975C238.386 545.113 222.63 541.153 192.711 556.182C157.616 573.81 150.104 611.743 163.686 638.775L285.179 880.6L239.941 919.229C123.108 1019 147.346 1155.59 175.092 1211.96L176.31 1214.44L177.345 1216.99C204.876 1284.96 238.165 1323.8 269.85 1345.92C301.292 1367.87 336.383 1377.03 374.161 1376.87C453.403 1376.55 539.112 1334.86 594.178 1292.96L686.121 1413.83C616.477 1466.83 499.222 1528.21 374.871 1528.72C310.854 1528.98 243.992 1512.99 183.028 1470.43C122.858 1428.43 73.637 1364.19 37.6454 1276.36C-2.60332 1192.24 -40.1623 1001.22 97.9801 846.066L28.0623 706.899C-14.4596 622.262 1.51117 500.811 99.0383 435.324C99.6556 410.053 97.4894 378.905 89.8457 346.745C78.0711 297.205 54.0496 248.157 10.3946 213.189L57.8136 153.934C78.7401 170.697 89.2119 180.519 110.488 209.538L110.911 210.116L110.533 209.537C113.969 191.822 118.853 173.555 125.547 155.5Z" fill="#E6E9E4"/>
<path d="M104.621 201.602C106.503 204.082 108.467 206.719 110.533 209.537C108.616 206.871 106.646 204.225 104.621 201.602Z" fill="#E6E9E4"/>
</svg>
