<svg width="56" height="56" viewBox="0 0 56 56" fill="none" xmlns="http://www.w3.org/2000/svg">
<path d="M17.1104 19.8318C16.359 19.0803 16.359 17.8619 17.1105 17.1105C17.8619 16.359 19.0803 16.359 19.8318 17.1104L38.8883 36.1654C39.6403 36.9173 39.6403 38.1364 38.8884 38.8884C38.1364 39.6403 36.9173 39.6403 36.1654 38.8883L17.1104 19.8318Z" fill="#FF683A"/>
<path d="M28.0005 3.50047C24.7775 3.48049 21.5826 4.10055 18.6011 5.32472C15.6196 6.54888 12.9108 8.35278 10.6318 10.6318C8.35278 12.9108 6.54888 15.6196 5.32472 18.6011C4.10055 21.5826 3.48049 24.7775 3.50047 28.0005C3.48049 31.2234 4.10055 34.4183 5.32472 37.3998C6.54888 40.3813 8.35278 43.0901 10.6318 45.3691C12.9108 47.6482 15.6196 49.4521 18.6011 50.6762C21.5826 51.9004 24.7775 52.5205 28.0005 52.5005C31.2234 52.5205 34.4183 51.9004 37.3998 50.6762C40.3813 49.4521 43.0901 47.6482 45.3691 45.3691C47.6482 43.0901 49.4521 40.3813 50.6762 37.3998C51.9004 34.4183 52.5205 31.2234 52.5005 28.0005C52.5205 24.7775 51.9004 21.5826 50.6762 18.6011C49.4521 15.6196 47.6482 12.9108 45.3691 10.6318C43.0901 8.35278 40.3813 6.54888 37.3998 5.32472C34.4183 4.10055 31.2234 3.48049 28.0005 3.50047ZM28.0005 49.0005C23.8471 49.0005 19.7869 47.7688 16.3335 45.4613C12.8801 43.1538 10.1884 39.8741 8.599 36.0368C7.00956 32.1996 6.59369 27.9772 7.40398 23.9036C8.21427 19.83 10.2143 16.0881 13.1512 13.1512C16.0881 10.2143 19.83 8.21427 23.9036 7.40398C27.9772 6.59369 32.1996 7.00956 36.0368 8.599C39.8741 10.1884 43.1538 12.8801 45.4613 16.3335C47.7688 19.7869 49.0005 23.8471 49.0005 28.0005C48.9843 33.565 46.7666 38.8971 42.8319 42.8319C38.8971 46.7666 33.565 48.9843 28.0005 49.0005Z" fill="#FF683A"/>
</svg>
