<svg width="283" height="221" viewBox="0 0 283 221" fill="none" xmlns="http://www.w3.org/2000/svg">
<path fill-rule="evenodd" clip-rule="evenodd" d="M20.2776 3.13756C64.6707 -5.90664 102.899 9.58852 131.337 30.5778C140.468 37.3175 148.775 44.7448 156.189 52.3675C156.829 37.8808 159.317 22.9869 164.233 7.97734L206.76 21.8887C196.505 53.2004 200.484 85.1196 210.665 113.332C226.059 155.99 251.162 182.037 282.994 212.584L234.906 220.085C203.747 189.824 180.441 159.766 169.826 131.904C114.596 144.252 73.5786 132.376 45.4962 108.434C17.5324 84.5924 5.43756 51.3569 2.53829 27.7782L0.0160064 7.26546L20.2776 3.13756ZM74.5377 74.4063C86.5238 84.6253 104.556 93.0228 131.869 92.0697C124.305 83.2093 115.173 74.2464 104.753 66.5561C89.4441 55.2567 72.2521 47.2938 53.5408 45.5879C58.0407 55.8045 64.8768 66.1697 74.5377 74.4063Z" fill="#F2F3F0"/>
</svg>
