<svg width="10" height="11" viewBox="0 0 10 11" fill="none" xmlns="http://www.w3.org/2000/svg">
<path d="M4.99997 5.3C4.72934 5.3 4.46979 5.19464 4.27843 5.00711C4.08706 4.81957 3.97956 4.56522 3.97956 4.3C3.97956 4.03478 4.08706 3.78043 4.27843 3.59289C4.46979 3.40536 4.72934 3.3 4.99997 3.3C5.27059 3.3 5.53014 3.40536 5.7215 3.59289C5.91287 3.78043 6.02037 4.03478 6.02037 4.3C6.02037 4.43132 5.99398 4.56136 5.9427 4.68268C5.89142 4.80401 5.81626 4.91425 5.7215 5.00711C5.62675 5.09997 5.51426 5.17362 5.39046 5.22388C5.26666 5.27413 5.13397 5.3 4.99997 5.3ZM4.99997 1.5C4.2422 1.5 3.51548 1.795 2.97966 2.3201C2.44384 2.8452 2.14282 3.55739 2.14282 4.3C2.14282 6.4 4.99997 9.5 4.99997 9.5C4.99997 9.5 7.85711 6.4 7.85711 4.3C7.85711 3.55739 7.55609 2.8452 7.02027 2.3201C6.48445 1.795 5.75773 1.5 4.99997 1.5Z" fill="#023D27"/>
</svg>
