<svg width="14" height="14" viewBox="0 0 14 14" fill="none" xmlns="http://www.w3.org/2000/svg">
<path d="M7 6.72039C6.62112 6.72039 6.25776 6.57289 5.98985 6.31034C5.72194 6.04779 5.57143 5.69169 5.57143 5.32039C5.57143 4.94909 5.72194 4.59299 5.98985 4.33044C6.25776 4.06789 6.62112 3.92039 7 3.92039C7.37888 3.92039 7.74224 4.06789 8.01015 4.33044C8.27806 4.59299 8.42857 4.94909 8.42857 5.32039C8.42857 5.50424 8.39162 5.68629 8.31983 5.85615C8.24804 6.026 8.14281 6.18034 8.01015 6.31034C7.8775 6.44034 7.72001 6.54347 7.54669 6.61382C7.37337 6.68418 7.1876 6.72039 7 6.72039ZM7 1.40039C5.93913 1.40039 4.92172 1.81339 4.17157 2.54853C3.42143 3.28367 3 4.28074 3 5.32039C3 8.26039 7 12.6004 7 12.6004C7 12.6004 11 8.26039 11 5.32039C11 4.28074 10.5786 3.28367 9.82843 2.54853C9.07828 1.81339 8.06087 1.40039 7 1.40039Z" fill="#fff"/>
</svg>
