<svg width="348" height="720" viewBox="0 0 348 720" fill="none" xmlns="http://www.w3.org/2000/svg">
<g opacity="0.04">
<path d="M209.822 69.0844C232.059 37.8441 266.256 8.93977 315.118 3.20135L337.419 0.582261L341.759 22.5484C346.747 47.7977 345.515 86.1024 324.733 120.117C303.862 154.276 265.562 180.401 204.401 186.412C204.423 186.001 204.444 185.591 204.464 185.181C204.448 185.409 204.431 185.638 204.414 185.867C204.401 186.046 204.387 186.226 204.373 186.406C202.12 215.673 201.788 217.039 200.468 222.469C200.099 223.99 199.652 225.829 199.063 228.69C232.542 228.664 262.645 239.81 286.92 262.347C316.534 289.84 331.783 329.125 339.709 367.521L244.533 387.201C238.455 357.753 229.13 341.203 220.661 333.341C214.811 327.909 205.728 322.873 184.731 327.215C160.103 332.307 149.153 354.461 153.055 373.366L187.964 542.484L153.573 558.856C64.7545 601.141 57.0302 689.358 64.812 728.688L65.1535 730.414L65.3685 732.16C71.0893 778.606 85.2127 808.037 101.125 826.893C116.915 845.604 137.088 857.025 160.47 863.149C209.516 875.995 269.437 864.397 310.448 847.626L347.195 937.3C295.328 958.511 212.629 977.058 135.664 956.899C96.0412 946.522 57.3625 925.654 26.7469 889.374C-3.47019 853.566 -23.2211 805.852 -30.8708 745.767C-41.7704 687.274 -33.2337 563.303 77.9691 490.37L57.8794 393.045C45.6613 333.855 75.7272 261.594 146.911 237.268C151.494 221.787 155.333 202.224 155.955 181.135C156.911 148.648 150.214 114.449 129.038 85.6996L168.206 56.9682C178.357 70.7496 183.199 78.5304 191.528 99.9269L191.694 100.353L191.556 99.9338C196.625 89.5761 202.682 79.1158 209.822 69.0844Z" fill="#023D27"/>
<path d="M189.22 94.0675C189.971 95.9065 190.747 97.8559 191.556 99.9338C190.814 97.9745 190.036 96.0182 189.22 94.0675Z" fill="#023D27"/>
</g>
</svg>
