<svg width="10" height="11" viewBox="0 0 10 11" fill="none" xmlns="http://www.w3.org/2000/svg">
<path d="M4.9999 7.54096C5.54115 7.54096 6.06024 7.32594 6.44297 6.94321C6.8257 6.56049 7.04071 6.0414 7.04071 5.50014C7.04071 4.95888 6.8257 4.43979 6.44297 4.05706C6.06024 3.67434 5.54115 3.45932 4.9999 3.45932C4.45864 3.45932 3.93955 3.67434 3.55682 4.05706C3.17409 4.43979 2.95908 4.95888 2.95908 5.50014C2.95908 6.0414 3.17409 6.56049 3.55682 6.94321C3.93955 7.32594 4.45864 7.54096 4.9999 7.54096ZM4.9999 1.92871C4.05269 1.92871 3.14429 2.30499 2.47451 2.97476C1.80474 3.64453 1.42847 4.55294 1.42847 5.50014C1.42847 6.44734 1.80474 7.35575 2.47451 8.02552C3.14429 8.69529 4.05269 9.07157 4.9999 9.07157C5.9471 9.07157 6.8555 8.69529 7.52528 8.02552C8.19505 7.35575 8.57132 6.44734 8.57132 5.50014C8.57132 4.55294 8.19505 3.64453 7.52528 2.97476C6.8555 2.30499 5.9471 1.92871 4.9999 1.92871ZM1.93867 5.50014C1.93867 5.09813 2.01785 4.70006 2.17169 4.32866C2.32553 3.95725 2.55102 3.61979 2.83528 3.33553C3.11954 3.05127 3.45701 2.82578 3.82842 2.67194C4.19982 2.5181 4.59789 2.43891 4.9999 2.43891C5.4019 2.43891 5.79997 2.5181 6.17138 2.67194C6.54278 2.82578 6.88025 3.05127 7.16451 3.33553C7.44877 3.61979 7.67426 3.95725 7.8281 4.32866C7.98194 4.70006 8.06112 5.09813 8.06112 5.50014C8.06112 6.31203 7.7386 7.09066 7.16451 7.66475C6.59042 8.23884 5.81178 8.56136 4.9999 8.56136C4.18801 8.56136 3.40937 8.23884 2.83528 7.66475C2.26119 7.09066 1.93867 6.31203 1.93867 5.50014Z" fill="#023D27"/>
</svg>
