<svg width="14" height="14" viewBox="0 0 14 14" fill="none" xmlns="http://www.w3.org/2000/svg">
<path d="M7 9.85714C7.75776 9.85714 8.48449 9.55612 9.02031 9.02031C9.55612 8.48449 9.85714 7.75776 9.85714 7C9.85714 6.24224 9.55612 5.51551 9.02031 4.97969C8.48449 4.44388 7.75776 4.14286 7 4.14286C6.24224 4.14286 5.51551 4.44388 4.97969 4.97969C4.44388 5.51551 4.14286 6.24224 4.14286 7C4.14286 7.75776 4.44388 8.48449 4.97969 9.02031C5.51551 9.55612 6.24224 9.85714 7 9.85714ZM7 2C5.67392 2 4.40215 2.52678 3.46447 3.46447C2.52678 4.40215 2 5.67392 2 7C2 8.32608 2.52678 9.59785 3.46447 10.5355C4.40215 11.4732 5.67392 12 7 12C8.32608 12 9.59785 11.4732 10.5355 10.5355C11.4732 9.59785 12 8.32608 12 7C12 5.67392 11.4732 4.40215 10.5355 3.46447C9.59785 2.52678 8.32608 2 7 2ZM2.71429 7C2.71429 6.43719 2.82514 5.87989 3.04052 5.35993C3.25589 4.83996 3.57158 4.36751 3.96954 3.96954C4.36751 3.57158 4.83996 3.25589 5.35993 3.04052C5.87989 2.82514 6.43719 2.71429 7 2.71429C7.56281 2.71429 8.12011 2.82514 8.64007 3.04052C9.16004 3.25589 9.63249 3.57158 10.0305 3.96954C10.4284 4.36751 10.7441 4.83996 10.9595 5.35993C11.1749 5.87989 11.2857 6.43719 11.2857 7C11.2857 8.13664 10.8342 9.22673 10.0305 10.0305C9.22673 10.8342 8.13664 11.2857 7 11.2857C5.86336 11.2857 4.77327 10.8342 3.96954 10.0305C3.16581 9.22673 2.71429 8.13664 2.71429 7Z" fill="#023D27"/>
</svg>
