<svg width="516" height="252" viewBox="0 0 516 252" fill="none" xmlns="http://www.w3.org/2000/svg">
<g clip-path="url(#clip0_388_7163)">
<g opacity="0.04">
<path d="M384.216 76.6663C411.852 52.4896 449.723 33.6115 495.23 40.644L516 43.8537L514.604 65.9715C512.999 91.395 502.619 127.709 475.625 154.912C448.515 182.23 407.613 197.399 350.935 187.476C351.054 187.088 351.172 186.701 351.289 186.315C351.219 186.529 351.149 186.743 351.078 186.957C351.023 187.126 350.967 187.294 350.911 187.463C341.795 214.873 341.165 216.093 338.66 220.949C337.958 222.308 337.109 223.953 335.886 226.537C366.121 235.091 390.606 253.463 407.072 281.235C427.159 315.114 431.424 356.589 429.291 395.337L338.592 389.769C340.228 360.051 335.813 341.836 330.068 332.147C326.1 325.454 319.117 318.311 299.108 317.082C275.639 315.641 260.391 334.021 259.341 353.099L249.945 523.768L214.931 530.613C124.504 548.29 96.1861 630.672 93.6971 670.276L93.5879 672.014L93.3597 673.739C87.288 719.62 92.9199 751.383 102.725 773.492C112.456 795.431 127.908 811.522 147.539 823.37C188.715 848.221 245.626 852.484 286.713 846.955L298.198 942.125C246.234 949.118 167.075 945.663 102.458 906.665C69.1924 886.589 39.3169 856.722 20.4506 814.184C1.82997 772.199 -4.45958 721.509 3.17005 662.092C7.48027 603.363 45.1819 486.999 163.236 445.749L168.643 347.531C171.931 287.798 216.561 226.399 286.721 221.377C294.605 207.748 302.804 190.023 308.467 170.015C317.191 139.194 319.418 104.774 307.253 71.8553L349.571 54.4163C355.402 70.1963 357.891 78.8774 360.235 101.473L360.281 101.923L360.259 101.487C367.342 92.8806 375.341 84.4295 384.216 76.6663Z" fill="#023D27"/>
<path d="M359.569 95.2782C359.802 97.2293 360.031 99.2923 360.259 101.487C360.063 99.4229 359.833 97.3527 359.569 95.2782Z" fill="#023D27"/>
</g>
</g>
<defs>
<clipPath id="clip0_388_7163">
<rect width="516" height="252" fill="white"/>
</clipPath>
</defs>
</svg>
