<svg width="516" height="213" viewBox="0 0 516 213" fill="none" xmlns="http://www.w3.org/2000/svg">
<g opacity="0.04">
<path d="M384.216 37.6663C411.852 13.4896 449.723 -5.38853 495.23 1.644L516 4.85374L514.604 26.9715C512.999 52.395 502.619 88.7095 475.625 115.912C448.515 143.23 407.613 158.399 350.935 148.476C351.054 148.088 351.172 147.701 351.289 147.315C351.219 147.529 351.149 147.743 351.078 147.957C351.023 148.126 350.967 148.294 350.911 148.463C341.795 175.873 341.165 177.093 338.66 181.949C337.958 183.308 337.109 184.953 335.886 187.537C366.121 196.091 390.606 214.463 407.072 242.235C427.159 276.114 431.424 317.589 429.291 356.337L338.592 350.769C340.228 321.051 335.813 302.836 330.068 293.147C326.1 286.454 319.117 279.311 299.108 278.082C275.639 276.641 260.391 295.021 259.341 314.099L249.945 484.768L214.931 491.613C124.504 509.29 96.1861 591.672 93.6971 631.276L93.5879 633.014L93.3597 634.739C87.288 680.62 92.9199 712.383 102.725 734.492C112.456 756.431 127.908 772.522 147.539 784.37C188.715 809.221 245.626 813.484 286.713 807.955L298.198 903.125C246.234 910.118 167.075 906.663 102.458 867.665C69.1924 847.589 39.3169 817.722 20.4506 775.184C1.82997 733.199 -4.45958 682.509 3.17005 623.092C7.48027 564.363 45.1819 447.999 163.236 406.749L168.643 308.531C171.931 248.798 216.561 187.399 286.721 182.377C294.605 168.748 302.804 151.023 308.467 131.015C317.191 100.194 319.418 65.774 307.253 32.8553L349.571 15.4163C355.402 31.1963 357.891 39.8774 360.235 62.4728L360.281 62.9229L360.259 62.4866C367.342 53.8806 375.341 45.4295 384.216 37.6663Z" fill="#023D27"/>
<path d="M359.569 56.2782C359.802 58.2293 360.031 60.2923 360.259 62.4866C360.063 60.4229 359.833 58.3527 359.569 56.2782Z" fill="#023D27"/>
</g>
</svg>
