<svg width="10" height="10" viewBox="0 0 10 10" fill="none" xmlns="http://www.w3.org/2000/svg">
<g clip-path="url(#clip0_388_9735)">
<path d="M3.43461 3.05879L0.776275 3.44421L0.729191 3.45379C0.657916 3.47271 0.592939 3.51021 0.540896 3.56246C0.488854 3.6147 0.451609 3.67983 0.432967 3.75118C0.414325 3.82252 0.414953 3.89754 0.434786 3.96857C0.45462 4.0396 0.492948 4.10409 0.545858 4.15546L2.47169 6.03004L2.01752 8.67796L2.01211 8.72379C2.00775 8.79751 2.02305 8.87106 2.05646 8.93692C2.08987 9.00277 2.14018 9.05857 2.20225 9.09859C2.26431 9.13861 2.33589 9.16141 2.40967 9.16467C2.48344 9.16792 2.55676 9.15152 2.62211 9.11712L4.99961 7.86712L7.37169 9.11712L7.41336 9.13629C7.48213 9.16338 7.55688 9.17168 7.62992 9.16035C7.70297 9.14902 7.77168 9.11847 7.82902 9.07182C7.88636 9.02517 7.93026 8.9641 7.95621 8.89489C7.98216 8.82567 7.98923 8.7508 7.97669 8.67796L7.52211 6.03004L9.44878 4.15504L9.48127 4.11962C9.5277 4.06244 9.55814 3.99398 9.56949 3.9212C9.58084 3.84843 9.5727 3.77395 9.5459 3.70534C9.51909 3.63674 9.47458 3.57647 9.41689 3.53067C9.35921 3.48487 9.29042 3.45518 9.21753 3.44462L6.55919 3.05879L5.37086 0.650456C5.33647 0.580679 5.28324 0.521921 5.21719 0.480833C5.15113 0.439745 5.0749 0.417969 4.99711 0.417969C4.91932 0.417969 4.84308 0.439745 4.77703 0.480833C4.71098 0.521921 4.65774 0.580679 4.62336 0.650456L3.43461 3.05879Z" fill="#023D27"/>
</g>
<defs>
<clipPath id="clip0_388_9735">
<rect width="10" height="10" fill="white"/>
</clipPath>
</defs>
</svg>
