<svg width="67" height="67" viewBox="0 0 67 67" fill="none" xmlns="http://www.w3.org/2000/svg">
<path fill-rule="evenodd" clip-rule="evenodd" d="M6.60743 32.1631L6.97969 21.5029C7.24288 13.9662 7.37457 10.1952 9.79885 7.93707C12.2206 5.67621 15.9916 5.8079 23.5283 6.07109L44.8487 6.81561C52.3854 7.0788 56.1565 7.21049 58.4146 9.63477C60.6754 12.0565 60.5437 15.8275 60.2805 23.3643L59.9083 34.0244C59.6451 41.5612 59.5134 45.3322 57.0891 47.5903C55.3073 49.2545 52.7969 49.6231 48.5926 49.5963C48.6552 47.5766 47.9989 45.6002 46.7408 44.019C46.6651 43.9274 46.6221 43.8132 46.6187 43.6945C46.5281 41.6616 45.7162 39.7274 44.3286 38.2389C42.941 36.7504 41.0685 35.8049 39.0469 35.572C38.9287 35.5603 38.8178 35.5095 38.7317 35.4276C37.2299 34.0545 35.2881 33.2613 33.2545 33.1903C31.2209 33.1193 29.2284 33.7751 27.6345 35.04C27.543 35.1157 27.4288 35.1587 27.31 35.1621C25.2767 35.2528 23.3422 36.0651 21.8536 37.4532C20.365 38.8414 19.4197 40.7145 19.1874 42.7366C19.1757 42.8548 19.1249 42.9657 19.043 43.0517C17.6786 44.5418 16.887 46.4676 16.8093 48.4864C12.6134 48.2198 10.1348 47.677 8.47342 45.8926C6.21256 43.4709 6.34424 39.6999 6.60743 32.1631ZM23.8223 16.7545C23.8409 16.2244 24.0692 15.7234 24.4571 15.3616C24.8451 14.9999 25.3608 14.807 25.8909 14.8255L41.8812 15.3839C42.4113 15.4024 42.9123 15.6308 43.2741 16.0187C43.6358 16.4067 43.8287 16.9224 43.8102 17.4525C43.7916 17.9826 43.5633 18.4837 43.1754 18.8454C42.7874 19.2072 42.2717 19.4 41.7416 19.3815L25.7513 18.8231C25.2212 18.8046 24.7202 18.5763 24.3584 18.1883C23.9967 17.8004 23.8038 17.2846 23.8223 16.7545ZM20.2351 23.9671C19.705 23.9485 19.1892 24.1414 18.8013 24.5031C18.4134 24.8649 18.185 25.3659 18.1665 25.896C18.148 26.4261 18.3408 26.9419 18.7026 27.3298C19.0644 27.7178 19.5654 27.9461 20.0955 27.9646L46.7459 28.8953C47.276 28.9138 47.7918 28.721 48.1797 28.3592C48.5677 27.9974 48.796 27.4964 48.8145 26.9663C48.833 26.4362 48.6402 25.9204 48.2784 25.5325C47.9167 25.1446 47.4156 24.9162 46.8855 24.8977L20.2351 23.9671Z" fill="#089946"/>
<path fill-rule="evenodd" clip-rule="evenodd" d="M36.0349 38.3818C35.2346 37.649 34.1992 37.2257 33.1148 37.1878C32.0304 37.15 30.968 37.5 30.1185 38.1752C29.3679 38.7732 28.4468 39.1175 27.4879 39.1586C26.4042 39.2069 25.3731 39.64 24.58 40.3801C23.7868 41.1202 23.2835 42.1189 23.1604 43.1967C23.0524 44.1482 22.6424 45.0411 21.9958 45.7523C21.2645 46.5523 20.8421 47.5866 20.8043 48.6698C20.7664 49.753 21.1157 50.8143 21.7894 51.6634C22.3875 52.4154 22.7316 53.3373 22.7729 54.294C22.8205 55.3782 23.2533 56.4099 23.9935 57.2036C24.7336 57.9973 25.7326 58.501 26.8109 58.6242C27.7623 58.7321 28.658 59.1396 29.3665 59.7861C30.1665 60.5174 31.2008 60.9398 32.2841 60.9776C33.3673 61.0155 34.4285 60.6662 35.2776 59.9925C36.0283 59.3945 36.9493 59.0501 37.9082 59.009C38.992 58.9614 40.0233 58.529 40.817 57.7894C41.6106 57.0498 42.1146 56.0515 42.2383 54.9737C42.3454 54.0203 42.7523 53.1255 43.4002 52.418C44.1322 51.6179 44.5551 50.583 44.593 49.4992C44.6308 48.4154 44.2812 47.3536 43.6067 46.5043C43.0087 45.7536 42.6644 44.8326 42.6233 43.8737C42.5751 42.7904 42.1423 41.7597 41.4028 40.9666C40.6632 40.1735 39.6652 39.6699 38.5878 39.5462C37.6342 39.4384 36.742 39.0307 36.0349 38.3818ZM38.1008 48.0678C38.3018 47.8961 38.4667 47.6864 38.5861 47.4506C38.7055 47.2149 38.7769 46.9578 38.7964 46.6942C38.8158 46.4307 38.7829 46.1659 38.6994 45.9152C38.6159 45.6645 38.4835 45.4328 38.31 45.2335C38.1364 45.0342 37.9251 44.8713 37.6882 44.7542C37.4513 44.6371 37.1935 44.5681 36.9298 44.5511C36.6661 44.5342 36.4016 44.5697 36.1517 44.6556C35.9018 44.7415 35.6714 44.8761 35.4738 45.0516L30.9882 48.9561L30.096 48.0657C29.7201 47.6963 29.2135 47.4901 28.6864 47.4922C28.1593 47.4942 27.6543 47.7042 27.2812 48.0766C26.9082 48.4489 26.6972 48.9535 26.6941 49.4806C26.6911 50.0077 26.8963 50.5147 27.265 50.8913L29.4745 53.1031C29.8326 53.4619 30.3136 53.6713 30.8202 53.689C31.3268 53.7067 31.8212 53.5313 32.2035 53.1984L38.1008 48.0678Z" fill="#089946"/>
</svg>
