<svg width="71" height="71" viewBox="0 0 71 71" fill="none" xmlns="http://www.w3.org/2000/svg">
<g clip-path="url(#clip0_377_1028)">
<path d="M61.0024 11.4468L60.5501 7.14408C60.4302 6.00294 59.8546 4.95694 58.95 4.2362C58.0453 3.51546 56.8858 3.17901 55.7264 3.30086L7.63959 8.35499C6.48019 8.47685 5.41592 9.04703 4.68091 9.94011C3.9459 10.8332 3.60036 11.976 3.7203 13.1171L4.17253 17.4198C4.29247 18.561 4.86806 19.607 5.77269 20.3277C6.67732 21.0485 7.83688 21.3849 8.99628 21.263L11.7097 47.0792L9.5239 47.3089C8.9442 47.3698 8.41207 47.6549 8.04456 48.1015C7.67706 48.548 7.50429 49.1194 7.56426 49.69C7.62423 50.2606 7.91203 50.7836 8.36434 51.1439C8.81666 51.5043 9.39643 51.6725 9.97614 51.6116L34.0195 49.0845L34.5108 53.7583C33.1057 54.4191 31.9815 55.5469 31.3369 56.9423C30.6922 58.3378 30.5686 59.9111 30.9879 61.3842C31.4072 62.8572 32.3424 64.1352 33.6282 64.9922C34.914 65.8492 36.4676 66.2301 38.0144 66.0675C39.5613 65.905 41.0017 65.2094 42.0812 64.1038C43.1607 62.9982 43.8098 61.5537 43.9136 60.0256C44.0175 58.4976 43.5695 56.9844 42.6488 55.7534C41.7281 54.5225 40.394 53.6531 38.8823 53.2989L38.391 48.6251L62.4344 46.098C63.0141 46.0371 63.5463 45.752 63.9138 45.3054C64.2813 44.8589 64.4541 44.2875 64.3941 43.7169C64.3341 43.1464 64.0463 42.6234 63.594 42.263C63.1417 41.9026 62.5619 41.7344 61.9822 41.7953L59.7964 42.025L57.0831 16.2089C58.2425 16.0871 59.3067 15.5169 60.0417 14.6238C60.7767 13.7307 61.1223 12.5879 61.0024 11.4468ZM37.562 61.7629C37.1297 61.8083 36.6938 61.7265 36.3095 61.5279C35.9252 61.3293 35.6098 61.0228 35.403 60.647C35.1963 60.2713 35.1075 59.8433 35.148 59.4171C35.1885 58.9909 35.3563 58.5857 35.6304 58.2527C35.9045 57.9197 36.2724 57.6739 36.6877 57.5463C37.1029 57.4188 37.5469 57.4152 37.9634 57.536C38.3799 57.6569 38.7503 57.8967 39.0276 58.2253C39.305 58.5538 39.4769 58.9563 39.5216 59.3818C39.5816 59.9524 39.4088 60.5238 39.0413 60.9703C38.6738 61.4168 38.1417 61.7019 37.562 61.7629ZM8.09182 12.6577L56.1786 7.60355L56.6308 11.9062L8.54405 16.9604L8.09182 12.6577Z" fill="#089946"/>
</g>
<defs>
<clipPath id="clip0_377_1028">
<rect width="64" height="64" fill="white" transform="translate(0.0751953 7.13672) rotate(-6)"/>
</clipPath>
</defs>
</svg>
